<svg width="252" height="272" viewBox="0 0 252 272" fill="none" xmlns="http://www.w3.org/2000/svg">
<path d="M110.593 268.723C103.038 261.168 97.876 248.801 91.7699 223.628C89.5083 214.305 86.7943 205.327 85.7386 203.677C82.5885 198.753 80.1341 200.027 78.0301 207.677C76.9712 211.527 74.5634 220.223 72.6795 227C66.4343 249.468 56.2507 265.862 47.1144 268.155C38.3362 270.358 35.3234 263.112 36.2473 242.021C37.0095 224.625 38.9252 216.586 46.6133 198.523C49.7214 191.22 51.6773 184.803 51.2272 183.385C50.3964 180.767 44.6601 177.738 28.1186 171.183C10.9318 164.372 5.56768 160.916 2.56969 154.723C-0.522301 148.336 -0.71633 146.113 1.41059 141.445C3.91431 135.95 9.66729 134.916 24.4742 137.298C44.5583 140.53 46.677 138.014 35.8808 123.753C28.0478 113.405 27.0833 107.303 32.319 101.216C36.4256 96.442 39.1822 97.2097 54.3411 107.349C60.9146 111.746 66.5656 115.344 66.8989 115.344C67.2322 115.344 66.3306 110.394 64.8954 104.344C62.727 95.203 62.3823 89.9634 62.8561 73.3438C63.3549 55.8498 63.8654 52.1743 66.9299 44.0104C71.9405 30.662 82.7614 21.6359 89.0203 25.5839C96.8036 30.4935 98.36 38.5659 99.4282 79.564C100.214 109.718 101.114 116.892 103.626 113.011C104.219 112.095 106.327 98.5747 108.311 82.9663C114.671 32.9358 123.389 9.74348 138.791 1.88618C150.687 -4.1826 154.743 4.35882 151.197 28.0105C150.098 35.3438 146.409 55.3209 143 72.4041C138.45 95.2037 137.196 103.859 138.285 104.948C141.872 108.535 144.455 103.694 163.966 56.8274C179.749 18.9134 186.652 10.0105 200.268 10.0105C213.246 10.0105 214.666 21.0745 204.632 44.0104C195.425 65.0582 188.704 78.0916 180.504 90.8035C165.488 114.079 165.542 116.298 180.931 108.608C187.991 105.08 191.394 101.819 206.524 84.0875C224.852 62.6082 230.572 57.7301 240.568 55.0566C251.858 52.0371 254.246 56.8527 248.139 70.3221C243.126 81.3769 237.924 89.0192 223.485 106.541C210.54 122.25 201.33 129.737 183.834 138.774C171.961 144.906 167.011 148.857 168.395 151.097C168.822 151.788 178.031 152.788 188.859 153.321C209.865 154.355 215.388 155.764 221.547 161.664C224.239 164.242 225.214 166.473 225.214 170.053C225.214 176.033 222.387 178.85 213.795 181.436C204.18 184.33 196.696 183.781 176.416 178.696C155.295 173.4 153.214 173.175 153.214 176.187C153.214 177.384 157.186 185.49 162.041 194.201C172.654 213.24 174.46 218.166 174.887 229.235C175.148 236.014 174.703 238.285 172.674 240.532C167.665 246.077 155.453 242.782 149.39 234.25C147.993 232.285 143.426 224.377 139.24 216.677C124.134 188.888 121.104 189.655 125.243 220.224C128.159 241.755 128.54 253.584 126.55 260.749C123.868 270.401 116.135 274.265 110.593 268.723ZM116.723 164.186C124.588 156.321 124.618 152.047 116.868 143.844C111.493 138.155 110.975 137.914 107.201 139.344C95.337 143.84 89.4186 158.159 95.9777 166.497C98.2411 169.375 99.8411 170.01 104.82 170.01C110.219 170.01 111.549 169.36 116.723 164.186Z" fill="black"/>
</svg>
